<svg width="48" height="48" viewBox="0 0 48 48" fill="none" xmlns="http://www.w3.org/2000/svg">
<path d="M22.6401 15.8056C22.2866 15.3813 21.656 15.324 21.2317 15.6776C20.8075 16.0311 20.7501 16.6617 21.1037 17.086L22.6401 15.8056ZM28.5011 24.4008L29.2693 25.041C29.5784 24.6701 29.5784 24.1315 29.2693 23.7606L28.5011 24.4008ZM21.1037 31.7156C20.7501 32.1399 20.8075 32.7705 21.2317 33.124C21.656 33.4776 22.2866 33.4203 22.6401 32.996L21.1037 31.7156ZM21.1037 17.086L27.7329 25.041L29.2693 23.7606L22.6401 15.8056L21.1037 17.086ZM27.7329 23.7606L21.1037 31.7156L22.6401 32.996L29.2693 25.041L27.7329 23.7606ZM24 41C14.6112 41 7 33.3888 7 24L5 24C5 34.4934 13.5066 43 24 43L24 41ZM7 24C7 14.6112 14.6112 7 24 7L24 5C13.5066 5 5 13.5066 5 24L7 24ZM24 7C33.3888 7 41 14.6112 41 24L43 24C43 13.5066 34.4934 5 24 5L24 7ZM41 24C41 33.3888 33.3888 41 24 41L24 43C34.4934 43 43 34.4934 43 24L41 24Z" fill="#E6DBE3"/>
</svg>
